<svg id="Layer_1" data-name="Layer 1" xmlns="http://www.w3.org/2000/svg" viewBox="0 0 571.95 136.98"><defs><style>.cls-1{fill:#fff;}</style></defs><title>Artboard 15</title><path class="cls-1" d="M152.53,119.36H168a1.42,1.42,0,0,0,1.42-1.42V86.56l14.26,32a1.42,1.42,0,0,0,1.3.84h12.64a1.42,1.42,0,0,0,1.42-1.42V46.17a1.42,1.42,0,0,0-1.42-1.42H182.15a1.42,1.42,0,0,0-1.42,1.42V73.25L169.1,45.62a1.42,1.42,0,0,0-1.31-.87H152.53a1.42,1.42,0,0,0-1.42,1.42v71.77a1.42,1.42,0,0,0,1.42,1.42"/><path class="cls-1" d="M243,104.16a1.42,1.42,0,0,0-1.42-1.42H223.08v-13h13.39a1.42,1.42,0,0,0,1.42-1.42V74.65a1.42,1.42,0,0,0-1.42-1.42H223.08V61.38h18.52A1.42,1.42,0,0,0,243,60V46.17a1.42,1.42,0,0,0-1.42-1.42H205.25a1.42,1.42,0,0,0-1.42,1.42v71.77a1.42,1.42,0,0,0,1.42,1.42h36.34a1.42,1.42,0,0,0,1.42-1.42Z"/><path class="cls-1" d="M257.63,118.18a1.41,1.41,0,0,0,1.4,1.18h15.72a1.43,1.43,0,0,0,1.4-1.21l4.06-27.21,4.06,27.21a1.43,1.43,0,0,0,1.41,1.21h15.72a1.42,1.42,0,0,0,1.4-1.18l12.42-71.77a1.42,1.42,0,0,0-1.4-1.67H298.56a1.43,1.43,0,0,0-1.4,1.21l-4.52,29.19L288.12,46a1.43,1.43,0,0,0-1.4-1.21h-12.3A1.41,1.41,0,0,0,273,46l-4.52,29.2L264,46a1.41,1.41,0,0,0-1.4-1.21H246.61a1.42,1.42,0,0,0-1.4,1.67Z"/><path class="cls-1" d="M356.79,75.22l-6.73-3.65c-3.31-1.76-4.72-3.71-4.72-6.49,0-2.26.68-5,3.93-5,2.23,0,4.51.86,4.51,7.24v3a1.42,1.42,0,0,0,1.42,1.42h14.7a1.42,1.42,0,0,0,1.42-1.42V67.47c0-15.24-7.83-23.63-22-23.63-13.18,0-22,9-22,22.38s7.73,18.88,15,22.89l6,3.3c4.2,2.32,6.21,3.58,6.21,6.84S353,104,350,104c-4.38,0-5.3-4.06-5.3-7.47V93.67a1.42,1.42,0,0,0-1.42-1.42H328.54a1.42,1.42,0,0,0-1.42,1.42v2.73c0,15.17,8.32,23.86,22.84,23.86,14.23,0,22.72-8.41,22.72-22.49,0-11.65-5.83-17.09-15.89-22.55"/><path class="cls-1" d="M418.65,44.75H374.34a1.42,1.42,0,0,0-1.42,1.42V60a1.42,1.42,0,0,0,1.42,1.42h12.25v56.56a1.42,1.42,0,0,0,1.42,1.42h16.63a1.42,1.42,0,0,0,1.42-1.42V61.38h12.59A1.42,1.42,0,0,0,420.08,60V46.17a1.42,1.42,0,0,0-1.42-1.42"/><path class="cls-1" d="M440.7,69.52c0-7.77,1.65-9.29,4.5-9.29s4.5,1.52,4.5,9.29V94.58c0,7.77-1.65,9.29-4.5,9.29s-4.5-1.52-4.5-9.29Zm4.5-25.68c-16.59,0-24.66,11-24.66,33.77V86.5c0,22.73,8.07,33.77,24.66,33.77s24.66-11,24.66-33.77V77.61c0-22.72-8.07-33.77-24.66-33.77"/><path class="cls-1" d="M501.55,69.29c0,6.23-1.78,8-7.92,8h-.17V61h.17c5.7,0,7.92,2.32,7.92,8.26M519.22,106v0c-.07-1.35-.15-2.85-.25-4.53-.54-8.51-2.81-13.33-7.54-15.86,6.13-2.8,9.36-9.08,9.36-18.23,0-14.58-8.76-22.61-24.66-22.61H475.51a1.42,1.42,0,0,0-1.42,1.42v71.77a1.42,1.42,0,0,0,1.42,1.42H492a1.42,1.42,0,0,0,1.42-1.42V93.39h.75c4,0,5.54,2.36,5.87,9,.45,8.67.68,13,1.66,16a1.42,1.42,0,0,0,1.35,1H519.6a1.43,1.43,0,0,0,1.2-.66,1.41,1.41,0,0,0,.08-1.37c-1.18-2.45-1.33-5.23-1.66-11.32"/><path class="cls-1" d="M571.69,45.35a1.42,1.42,0,0,0-1.16-.6H554a1.42,1.42,0,0,0-1.36,1l-6.33,21.9-6.9-21.94a1.42,1.42,0,0,0-1.36-1H520.75a1.42,1.42,0,0,0-1.34,1.9L536.07,93v24.93a1.42,1.42,0,0,0,1.42,1.42h16.29a1.42,1.42,0,0,0,1.42-1.42V93l16.66-46.36a1.42,1.42,0,0,0-.18-1.3"/><path class="cls-1" d="M27.74,72.58,17.12,109.79l25-23.92ZM56.12,85.74,94,120.67l24.38-94.44ZM.08,134.6,22,57.85A1.84,1.84,0,0,1,25,57L49.07,79.23,131.35.52a1.84,1.84,0,0,1,3.06,1.79L100,135.6a1.84,1.84,0,0,1-3,.89L49.18,92.38,3.12,136.44a1.84,1.84,0,0,1-3-1.84"/></svg>