<svg id="Layer_1" data-name="Layer 1" xmlns="http://www.w3.org/2000/svg" viewBox="0 0 463.83 201.22"><defs><style>.cls-1{fill:#fff;}</style></defs><title>Artboard 16</title><path class="cls-1" d="M221.95,116.6h15.42a1.41,1.41,0,0,0,1.41-1.41V83.95L253,115.76a1.41,1.41,0,0,0,1.29.84h12.59a1.42,1.42,0,0,0,1.41-1.41V43.73a1.42,1.42,0,0,0-1.41-1.42H251.44A1.42,1.42,0,0,0,250,43.73v27L238.45,43.18a1.41,1.41,0,0,0-1.3-.87h-15.2a1.42,1.42,0,0,0-1.42,1.42v71.45a1.42,1.42,0,0,0,1.42,1.41"/><path class="cls-1" d="M313,101.46a1.42,1.42,0,0,0-1.41-1.41H293.11V87.11h13.33a1.42,1.42,0,0,0,1.42-1.42V72.09a1.42,1.42,0,0,0-1.42-1.41H293.11V58.87h18.44A1.42,1.42,0,0,0,313,57.46V43.73a1.42,1.42,0,0,0-1.41-1.42H275.36a1.42,1.42,0,0,0-1.41,1.42v71.45a1.42,1.42,0,0,0,1.41,1.41h36.18a1.42,1.42,0,0,0,1.41-1.41Z"/><path class="cls-1" d="M327.51,115.43a1.41,1.41,0,0,0,1.39,1.17h15.65a1.42,1.42,0,0,0,1.4-1.21l4-27.09,4,27.09a1.42,1.42,0,0,0,1.4,1.21h15.65a1.41,1.41,0,0,0,1.39-1.17L384.85,44a1.41,1.41,0,0,0-1.39-1.66h-15.2a1.43,1.43,0,0,0-1.4,1.2l-4.5,29.07-4.5-29.06a1.43,1.43,0,0,0-1.4-1.2H344.21a1.41,1.41,0,0,0-1.4,1.2l-4.5,29.07-4.5-29.07a1.41,1.41,0,0,0-1.4-1.2H316.54A1.41,1.41,0,0,0,315.15,44Z"/><path class="cls-1" d="M248.48,156.37l-6.7-3.63c-3.29-1.76-4.7-3.69-4.7-6.46,0-2.25.68-4.94,3.92-4.94,2.22,0,4.48.86,4.48,7.2v2.95a1.42,1.42,0,0,0,1.41,1.41h14.63a1.42,1.42,0,0,0,1.41-1.41v-2.84c0-15.17-7.79-23.53-21.94-23.53-13.12,0-21.94,9-21.94,22.28s7.7,18.8,14.91,22.79l6,3.28c4.18,2.31,6.19,3.56,6.19,6.81s-1.42,4.71-4.48,4.71c-4.36,0-5.28-4-5.28-7.43v-2.83a1.42,1.42,0,0,0-1.41-1.42H220.36a1.42,1.42,0,0,0-1.41,1.42v2.72c0,15.1,8.29,23.76,22.74,23.76,14.17,0,22.62-8.37,22.62-22.4,0-11.6-5.8-17-15.82-22.45"/><path class="cls-1" d="M310.67,126H266.55a1.42,1.42,0,0,0-1.41,1.42v13.72a1.42,1.42,0,0,0,1.41,1.42h12.2V198.9a1.42,1.42,0,0,0,1.41,1.42h16.56a1.42,1.42,0,0,0,1.42-1.42V142.58h12.54a1.42,1.42,0,0,0,1.41-1.42V127.44a1.42,1.42,0,0,0-1.41-1.42"/><path class="cls-1" d="M332.62,150.69c0-7.73,1.64-9.25,4.48-9.25s4.48,1.51,4.48,9.25v25c0,7.74-1.64,9.25-4.48,9.25s-4.48-1.51-4.48-9.25Zm4.48-25.57c-16.52,0-24.55,11-24.55,33.62v8.85c0,22.63,8,33.63,24.55,33.63s24.55-11,24.55-33.63v-8.85c0-22.63-8-33.62-24.55-33.62"/><path class="cls-1" d="M394.08,150.47c0,6.2-1.77,8-7.89,8H386V142.24h.17c5.67,0,7.89,2.31,7.89,8.22M411.67,187v0c-.07-1.34-.15-2.83-.25-4.51-.54-8.47-2.8-13.27-7.5-15.78,6.1-2.79,9.32-9,9.32-18.15,0-14.52-8.72-22.51-24.55-22.51H368.16a1.42,1.42,0,0,0-1.42,1.42V198.9a1.42,1.42,0,0,0,1.42,1.41h16.45A1.42,1.42,0,0,0,386,198.9V174.45h.74c4,0,5.51,2.35,5.85,9,.45,8.64.68,13,1.66,15.91a1.41,1.41,0,0,0,1.34,1h16.44a1.43,1.43,0,0,0,1.2-.66,1.4,1.4,0,0,0,.08-1.37c-1.18-2.44-1.33-5.21-1.65-11.27"/><path class="cls-1" d="M463.57,126.63a1.42,1.42,0,0,0-1.16-.6H446a1.42,1.42,0,0,0-1.36,1l-6.3,21.81L431.44,127a1.41,1.41,0,0,0-1.35-1H412.85a1.42,1.42,0,0,0-1.33,1.89l16.59,46.16V198.9a1.42,1.42,0,0,0,1.41,1.42h16.22a1.42,1.42,0,0,0,1.41-1.42V174.08l16.59-46.16a1.42,1.42,0,0,0-.18-1.29"/><path class="cls-1" d="M40.74,106.61,25.15,161.27l36.74-35.14ZM82.44,126,138,177.26,173.83,38.53ZM.11,197.73,32.28,85a2.71,2.71,0,0,1,4.44-1.25l35.37,32.65L193,.76a2.71,2.71,0,0,1,4.49,2.63l-50.55,195.8a2.7,2.7,0,0,1-4.45,1.31L72.25,135.7,4.58,200.43a2.7,2.7,0,0,1-4.47-2.7"/></svg>